<svg width="200" height="24" viewBox="0 0 200 24" fill="none" xmlns="http://www.w3.org/2000/svg">
<path d="M112.612 20.0354C111.882 20.0354 111.268 19.7887 110.77 19.2954C110.272 18.802 110.022 18.1853 110.022 17.4452C110.022 16.6875 110.272 16.0751 110.77 15.6082C111.268 15.1413 111.882 14.9078 112.612 14.9078C113.341 14.9078 113.955 15.1413 114.454 15.6082C114.952 16.0751 115.201 16.6875 115.201 17.4452C115.201 18.1853 114.952 18.802 114.454 19.2954C113.955 19.7887 113.341 20.0354 112.612 20.0354Z" fill="#469ED7"/>
<path d="M156.743 1.3221L148.789 15.965C148.024 17.3747 147.103 18.4407 146.027 19.1632C144.95 19.8857 143.78 20.2469 142.517 20.2469C141.538 20.2469 140.524 20.0354 139.474 19.6125L140.515 16.3615C141.262 16.5906 141.885 16.7051 142.383 16.7051C142.917 16.7051 143.398 16.5774 143.825 16.3218C144.252 16.0664 144.643 15.6654 144.999 15.1192L145.159 14.9078L137.793 1.3221H142.41L147.375 11.2602L152.499 1.3221H156.743Z" fill="#469ED7"/>
<path d="M127.911 1.3221C129.566 1.3221 131.003 1.59525 132.222 2.14149C133.441 2.68773 134.379 3.46303 135.038 4.46747C135.696 5.47185 136.025 6.66127 136.025 8.03567C136.025 9.39246 135.696 10.5775 135.038 11.5907C134.379 12.6038 133.441 13.3792 132.222 13.9166C131.003 14.4541 129.566 14.7228 127.911 14.7228H124.148V19.824H119.824V1.3221H127.911ZM127.671 11.2338C128.97 11.2338 129.957 10.9563 130.634 10.4013C131.31 9.84617 131.648 9.05767 131.648 8.03567C131.648 6.99606 131.31 6.19871 130.634 5.64363C129.957 5.08855 128.97 4.81104 127.671 4.81104H124.148V11.2338H127.671Z" fill="#469ED7"/>
<path d="M91.6533 7.40134C93.9309 7.40134 95.6791 7.90349 96.898 8.90786C98.1168 9.9123 98.7263 11.4012 98.7263 13.3748C98.7263 15.4716 98.0546 17.0707 96.7112 18.172C95.3677 19.2733 93.4771 19.824 91.0394 19.824H82.6052V1.3221H86.9023V7.40134H91.6533ZM90.7992 16.6522C91.9202 16.6522 92.7965 16.3791 93.4282 15.8329C94.0599 15.2866 94.3758 14.4936 94.3758 13.454C94.3758 11.5334 93.1835 10.573 90.7992 10.573H86.9023V16.6522H90.7992ZM101.102 1.3221H105.399V19.824H101.102V1.3221Z" fill="#469ED7"/>
<path d="M49.2031 1.3221C50.8579 1.3221 52.2948 1.59525 53.5137 2.14149C54.7325 2.68773 55.6711 3.46303 56.3295 4.46747C56.9879 5.47185 57.317 6.66127 57.317 8.03567C57.317 9.39246 56.9879 10.5775 56.3295 11.5907C55.6711 12.6038 54.7325 13.3792 53.5137 13.9166C52.2948 14.4541 50.8579 14.7228 49.2031 14.7228H45.4398V19.824H41.1159V1.3221H49.2031ZM48.9629 11.2338C50.2619 11.2338 51.2494 10.9563 51.9255 10.4013C52.6017 9.84617 52.9398 9.05767 52.9398 8.03567C52.9398 6.99606 52.6017 6.19871 51.9255 5.64363C51.2494 5.08855 50.2619 4.81104 48.9629 4.81104H45.4398V11.2338H48.9629Z" fill="#469ED7"/>
<path d="M37.6663 1.3221L29.7126 15.965C28.9474 17.3747 28.0266 18.4407 26.9501 19.1632C25.8736 19.8857 24.7036 20.2469 23.4403 20.2469C22.4616 20.2469 21.4474 20.0354 20.3975 19.6125L21.4385 16.3615C22.1858 16.5906 22.8086 16.7051 23.3068 16.7051C23.8407 16.7051 24.3211 16.5774 24.7481 16.3218C25.1752 16.0664 25.5666 15.6654 25.9225 15.1192L26.0826 14.9078L18.7161 1.3221H23.3335L28.298 11.2602L33.4226 1.3221H37.6663Z" fill="#469ED7"/>
<path d="M7.28653 12.3704H4.29716V19.824H0V1.3221H4.29716V8.80214H7.39329L12.3044 1.3221H16.8684L10.7563 10.2559L17.0553 19.824H12.1442L7.28653 12.3704Z" fill="#469ED7"/>
<path d="M70.6684 20.1411C68.7645 20.1411 67.0429 19.7314 65.5037 18.9121C63.9646 18.0927 62.7546 16.9562 61.8739 15.5024C60.9931 14.0488 60.5527 12.4056 60.5527 10.573C60.5527 8.74048 60.9931 7.09735 61.8739 5.64361C62.7546 4.18988 63.9646 3.05339 65.5037 2.234C67.0429 1.41461 68.7734 1.00491 70.6951 1.00491C72.3143 1.00491 73.7778 1.28684 75.0857 1.85077C76.3935 2.41463 77.4923 3.22518 78.382 4.28241L75.6062 6.81984C74.3428 5.37488 72.777 4.65244 70.9086 4.65244C69.752 4.65244 68.72 4.90355 67.8125 5.40577C66.905 5.90792 66.1978 6.60833 65.6906 7.50705C65.1835 8.40569 64.93 9.42768 64.93 10.573C64.93 11.7184 65.1835 12.7404 65.6906 13.6391C66.1978 14.5377 66.905 15.2381 67.8125 15.7403C68.72 16.2426 69.752 16.4936 70.9086 16.4936C72.777 16.4936 74.3428 15.7624 75.6062 14.2998L78.382 16.8372C77.4923 17.9121 76.3891 18.7315 75.0723 19.2953C73.7556 19.8592 72.2876 20.1411 70.6684 20.1411Z" fill="#469ED7"/>
<path d="M169.496 1.09626H165.731C164.8 1.09626 164.045 1.84364 164.045 2.76557V18.1245C164.045 19.0464 164.8 19.7938 165.731 19.7938H169.496C170.427 19.7938 171.181 19.0464 171.181 18.1245V2.76557C171.181 1.84364 170.427 1.09626 169.496 1.09626Z" fill="#469ED7"/>
<path d="M180.239 1.09625H176.474C175.543 1.09625 174.788 1.84363 174.788 2.76557V18.1245C174.788 19.0464 175.543 19.7938 176.474 19.7938H180.239C181.17 19.7938 181.924 19.0464 181.924 18.1245V2.76557C181.924 1.84363 181.17 1.09625 180.239 1.09625Z" fill="#469ED7"/>
<path d="M189.524 1.23486L186.288 3.14078C185.488 3.61209 185.225 4.63653 185.701 5.42895L193.629 18.63C194.105 19.4225 195.139 19.6828 195.94 19.2115L199.176 17.3055C199.976 16.8342 200.239 15.8098 199.763 15.0174L191.835 1.81628C191.359 1.02387 190.324 0.763555 189.524 1.23486Z" fill="#469ED7"/>
</svg>
